<?xml version="1.0" standalone="no"?>
<!DOCTYPE svg PUBLIC "-//W3C//DTD SVG 20010904//EN"
 "http://www.w3.org/TR/2001/REC-SVG-20010904/DTD/svg10.dtd">
<svg version="1.0" xmlns="http://www.w3.org/2000/svg"
 width="920.000000pt" height="920.000000pt" viewBox="0 0 920.000000 920.000000"
 preserveAspectRatio="xMidYMid meet">

<g transform="translate(0.000000,920.000000) scale(0.100000,-0.100000)"
fill="#000000" stroke="none">
<path d="M4305 9054 c-16 -2 -86 -9 -155 -15 -69 -6 -203 -24 -298 -39 -1167
-195 -2229 -868 -2911 -1845 -433 -620 -701 -1340 -783 -2105 -20 -190 -17
-755 5 -942 116 -969 503 -1817 1158 -2535 349 -383 808 -727 1289 -968 367
-184 806 -329 1205 -399 300 -52 406 -61 785 -61 379 0 485 9 784 61 1050 184
2021 761 2695 1599 469 584 787 1284 915 2014 51 286 60 412 61 776 0 367 -7
464 -55 753 -273 1632 -1448 2988 -3032 3500 -277 90 -560 151 -868 188 -127
15 -717 29 -795 18z m745 -309 c517 -61 950 -188 1396 -409 891 -440 1593
-1183 1985 -2098 275 -642 382 -1346 313 -2048 -119 -1200 -743 -2275 -1736
-2988 -333 -238 -768 -454 -1163 -577 -1490 -463 -3095 -67 -4196 1034 -606
607 -1019 1404 -1158 2236 -52 309 -72 726 -50 1015 79 1030 526 1978 1273
2697 697 672 1603 1077 2581 1152 164 13 598 5 755 -14z"/>
<path d="M5009 6463 c-77 -199 -1393 -3673 -1397 -3686 -4 -16 13 -17 304 -15
l307 3 147 385 c461 1210 1240 3261 1256 3303 l13 37 -310 0 -309 0 -11 -27z"/>
<path d="M2268 5301 l-918 -515 0 -208 0 -207 43 -25 c119 -69 1790 -1006
1793 -1006 2 0 4 143 4 318 l0 317 -535 300 c-294 165 -534 302 -534 305 0 3
234 136 521 295 286 160 527 295 535 300 11 8 13 68 11 326 l-3 316 -917 -516z"/>
<path d="M6010 5500 l0 -319 139 -78 c76 -43 316 -177 534 -298 218 -121 396
-222 396 -225 0 -3 -240 -140 -534 -305 l-535 -300 0 -318 c0 -175 4 -317 8
-315 10 3 1651 925 1765 990 l67 39 0 207 0 208 -862 484 c-474 267 -888 500
-920 517 l-58 33 0 -320z"/>
</g>
</svg>
